# xmcd
#
# Track frame offsets:
#	150
#	18975
#	35975
#	49925
#	73480
#	91605
#	111165
#	131198
#	145648
#	162230
#
# Disc length: 2385 seconds
#
# Revision: 1
# Processed by: cddbd v1.5.2PL0 Copyright (c) Steve Scherf et al.
# Submitted via: EZCDAudioConverter 8.0.2.1
#
DISCID=8f094f0a
DTITLE=Various Artist - Tình Khúc Julio Iglesias
DYEAR=1988
DGENRE=Latin Pop
TTITLE0=Thanh Tùng, Thúy Vy - Sưởi ấm ngàn thu ( Don Quiehotte)
TTITLE1=Thanh Tùng - Giờ này em ở đau (Quand Tu N'es Plus La)
TTITLE2=Thanh Tùng, Thúy Vy - Thủy chung Fidele)
TTITLE3=Thanh Tùng, Hà Thanh Lịch - Hãy đến bên em (Viens M'embrasser)
TTITLE4=Thanh Tùng - Trên đỉnh yêu thương (Everytime I Fall In Love)
TTITLE5=Thanh Tùng, Hà Thanh Lịch - Chuyện tình tôi (D'abord Et Puis)
TTITLE6=Thanh Tùng - Bản tình ca cho em (C'est Toi Ma Chanson)
TTITLE7=Thanh Tùng, Vy Lan - Ta vẫn yêu em (Je L'aime Encore) 
TTITLE8=Thanh Tùng - Một lần bên em (Tu Danses, Danses)
TTITLE9=Thanh Tùng, Vy Lan - Đời vẫn còn xót xa (Trente Trois Ans)
EXTD=
EXTT0=
EXTT1=
EXTT2=
EXTT3=
EXTT4=
EXTT5=
EXTT6=
EXTT7=
EXTT8=
EXTT9=
PLAYORDER=
